# xmcd
#
# Track frame offsets:
#	150
#	9895
#	26873
#	43965
#	57355
#	73988
#	88598
#	105500
#	116875
#	133898
#	146355
#	156540
#
# Disc length: 2677 seconds
#
# Revision: 0
# Processed by: cddbd v1.5PL3 Copyright (c) Steve Scherf et al.
# Submitted via: dBpowerAMP V4.0
#
DISCID=b10a730c
DTITLE=Ruben Vela - De Pasadita
DYEAR=1900
DGENRE=Latin
TTITLE0=De Pasadita
TTITLE1=Tus Modos
TTITLE2=Lastima Que Seas Ajena
TTITLE3=El Coco Rayado
TTITLE4=Dejame Ver Tus Lindos Ojos
TTITLE5=La Gran Señora
TTITLE6=Ella No Es Egoísta
TTITLE7=The Fugitive
TTITLE8=Paloma Sin Nido
TTITLE9=El Agente Viajero
TTITLE10=La Cosquillosa
TTITLE11=Popurri de Exitos
EXTD=
EXTT0=
EXTT1=
EXTT2=
EXTT3=
EXTT4=
EXTT5=
EXTT6=
EXTT7=
EXTT8=
EXTT9=
EXTT10=
EXTT11=
PLAYORDER=
